<svg xmlns="http://www.w3.org/2000/svg" width="1584.9" height="1079.27" viewBox="0 0 1584.9 1079.27"><defs><style>.a{fill:#786ab5;}.b{fill:#553e93;}.c{fill:#ffba41;}.d{opacity:0.5;}.e{fill:#fff;}.f{fill:#c8c1e1;}.g{fill:#56335b;}.h{fill:#552748;}.i{fill:#fdad9b;}.j{fill:#ff8548;}.k{fill:#66192d;}.l{fill:#e08b65;}.m{fill:#060633;}.n{fill:#020202;}.o{opacity:0.3;}.p{fill:#ff443c;}.q{fill:#f18c7e;}</style></defs><path class="a" d="M433.35,105.58c0,4.46-33.38,8.07-74.56,8.07s-74.41,6.44-74.41,2c0-31.88,33.23-61.8,74.41-61.8S433.35,77,433.35,105.58Z"/><path class="b" d="M433.2,106c.2,3.11-15.9,6.86-39.64,9.75l-4.19.49c-9.18,1-19.35,1.93-30.07,2.62-9.1.59-17.82,1-25.9,1.16-2.93.08-5.76.13-8.51.15-23.88.2-40.31-1.45-40.51-4.56-.17-2.69,11.79-5.84,30.34-8.51l4.55-.62c7.84-1,16.68-2,26.15-2.77,4.18-.35,8.47-.68,12.86-1,3.06-.2,6.09-.37,9.05-.52,12.53-.64,24.13-.89,34-.77h.7C420.75,101.76,433,103.35,433.2,106Z"/><path class="c" d="M401.32,101.49a48.65,48.65,0,0,1-8.15,11.25,46.84,46.84,0,0,1-3.8,3.53,47.77,47.77,0,0,1-56,3.78,48.19,48.19,0,0,1-9-7.31,47.62,47.62,0,0,1-5.1-6.23c7.84-1,16.68-2,26.15-2.77,4.18-.35,8.47-.68,12.86-1,3.06-.2,6.09-.37,9.05-.52C379.86,101.62,391.46,101.37,401.32,101.49Z"/><path class="a" d="M358.79,59.19h0a3.2,3.2,0,0,1-3.2-3.2V3.2a3.2,3.2,0,0,1,3.2-3.2h0A3.2,3.2,0,0,1,362,3.2V56A3.2,3.2,0,0,1,358.79,59.19Z"/><ellipse class="a" cx="358.79" cy="55.24" rx="9.28" ry="9.37"/><path class="a" d="M1332.63,105.58c0,4.46-33.38,8.07-74.57,8.07s-74.41,6.44-74.41,2c0-31.88,33.23-61.8,74.41-61.8S1332.63,77,1332.63,105.58Z"/><path class="b" d="M1332.48,106c.19,3.11-15.9,6.86-39.65,9.75l-4.19.49c-9.18,1-19.35,1.93-30.06,2.62-9.1.59-17.83,1-25.9,1.16q-4.4.12-8.51.15c-23.89.2-40.32-1.45-40.52-4.56-.17-2.69,11.8-5.84,30.34-8.51l4.55-.62c7.85-1,16.69-2,26.16-2.77,4.18-.35,8.47-.68,12.85-1,3.06-.2,6.09-.37,9-.52,12.53-.64,24.14-.89,34-.77h.7C1320,101.76,1332.3,103.35,1332.48,106Z"/><path class="c" d="M1300.59,101.49a48.61,48.61,0,0,1-8.14,11.25,47,47,0,0,1-3.81,3.53,47.75,47.75,0,0,1-56,3.78,48.13,48.13,0,0,1-14.14-13.54c7.85-1,16.69-2,26.16-2.77,4.18-.35,8.47-.68,12.85-1,3.06-.2,6.09-.37,9-.52C1279.13,101.62,1290.74,101.37,1300.59,101.49Z"/><path class="a" d="M1258.06,59.19h0a3.2,3.2,0,0,1-3.2-3.2V3.2a3.2,3.2,0,0,1,3.2-3.2h0a3.2,3.2,0,0,1,3.2,3.2V56A3.2,3.2,0,0,1,1258.06,59.19Z"/><ellipse class="a" cx="1258.06" cy="55.24" rx="9.28" ry="9.37"/><g class="d"><path class="a" d="M920.58,118.89C919.12,87.21,890.67,60.43,859,60.43c-44.93,0-59.66,34.41-61.43,66.07-1.84,32.89,27.14,55.39,58.85,55.39S922.4,158.24,920.58,118.89Z"/><path class="e" d="M909.44,122.2c0-25.22-25.18-52.09-50.39-52.9-37.3-1.2-52.43,36.64-52.43,61.87s26,40.26,51.27,40.26S909.44,147.43,909.44,122.2Z"/><path class="a" d="M864.45,121.35c-.34-3.44-4-5.74-7.46-5.74s-7.17,4.17-7.17,7.63,3.71,6.29,7.17,6.29S865.08,127.73,864.45,121.35Z"/><path class="a" d="M857,124.51h-1.25a1.24,1.24,0,0,1-1.24-1.25c0-.68-1.57-3-.89-3l.7-1.46,1.5-34.07-1.56,1a1.24,1.24,0,1,1-2-1.41L856,78.7a1.24,1.24,0,0,1,2.26.71l2.07,43.76C860.37,123.86,857.68,124.51,857,124.51Z"/><path class="a" d="M861.29,85.84a1.27,1.27,0,0,1-1-.46L855.6,82c-.43-.53.14-3.13.67-3.56a1.25,1.25,0,0,1,1.75.18l4.23,5.19a1.24,1.24,0,0,1-.18,1.75A1.23,1.23,0,0,1,861.29,85.84Z"/><path class="a" d="M834.46,128.53a1.19,1.19,0,0,1-.89-.38l-3.7-3.82a1.25,1.25,0,0,1,.9-2.11h0l29.34-1.54c.69,0,1.08,2.16,1.08,2.85v1.25a1.25,1.25,0,0,1-1.25,1.25c-.68,0-2.23.61-2.23-.07l1-1.19-25-.06,1.65,1.72a1.23,1.23,0,0,1,0,1.75A1.2,1.2,0,0,1,834.46,128.53Z"/><path class="a" d="M830.77,124.71a1.23,1.23,0,0,1-.79-.28,1.25,1.25,0,0,1-.18-1.75l3.46-4.23a1.24,1.24,0,1,1,1.92,1.57l-1.35,3.17A12.31,12.31,0,0,1,830.77,124.71Z"/></g><ellipse class="f" cx="792.45" cy="1019.9" rx="792.45" ry="59.36"/><path class="g" d="M616.26,573.7l-86.5-2a2.92,2.92,0,0,1-2.86-2.92V540.39a2.92,2.92,0,0,1,2.87-2.93l88-1.8a2.93,2.93,0,0,1,3,3.06l-1.52,32.19A2.93,2.93,0,0,1,616.26,573.7Z"/><path class="c" d="M613.28,570.42l-80-1.56a3,3,0,0,1-3-3V543.48a3,3,0,0,1,3-3.05L614.19,539a3,3,0,0,1,3.09,3.15l-.9,25.32A3,3,0,0,1,613.28,570.42Z"/><polygon class="g" points="581.66 604.59 564.39 604.59 567.71 571.63 581.3 571.63 581.66 604.59"/><path class="g" d="M581,620.87h88.74l-5.76-23a14.93,14.93,0,0,0-14.48-11.29h-76.4Z"/><path class="h" d="M623.22,620.87H534.48l5.16-20.58a18.07,18.07,0,0,1,17.54-13.68h66.75a5.72,5.72,0,0,1,5.58,7Z"/><path class="i" d="M725,457.65c-3.69,6.59-40.82,64.1-33,120.36l40.41-14.62,18.47-75.82Z"/><path class="j" d="M886.36,434.08s-24.83-44.53-85.27-32.22-93.42,98.82-77,270.16c0,0,96-38.17,220.86-7.4C944.93,664.62,924.38,498.68,886.36,434.08Z"/><path class="j" d="M932.46,416.09,890,458.5s-108.91,29.42-139.16,29.07-42.16-22.46-42.16-22.46,25.53-40.43,77.19-58.72a147.38,147.38,0,0,1,15.24-4.52,155.76,155.76,0,0,1,27-3.92C881.56,394.77,932.46,416.09,932.46,416.09Z"/><path class="k" d="M932.46,416.09c6.79,7.38-3.68,15.44-15.41,27.15S893.2,461.78,890,458.5s3.68-15.45,15.41-27.16S929.34,412.7,932.46,416.09Z"/><path class="i" d="M895.63,458.67s-.64-8.47,10-19.28c6.41-6.52,14.53-10.77,20-13.13a6.21,6.21,0,0,1,8.26,3.48l3.41,8.78-15.86,10.22Z"/><path class="i" d="M812.77,619.16c-10.65,0-19.4-2.69-26.5-8-13.4-10.1-15.89-26.22-13.94-37l12.82-7.45c.64-3.52,25.38,9.55,25.34,9.54s11.81,3.42,52.36-17.3c28.23-14.43,42.46-34.9,43.5-62.6.78-20.87-8.53-32.6-10.72-37.68-.29-.68,13.64-14.65,13.24-16.07l10.45-5.31c-.34-1.2,10-5.29,9.89-5.63l8.07,6.86A134.53,134.53,0,0,1,948.63,498C947.49,528.21,935,570,882,597.06,853,611.85,830.32,619.16,812.77,619.16Z"/><path class="k" d="M802.47,620.86H706.76a4.64,4.64,0,0,1-4.42-3.16l-19.89-59.4a4.63,4.63,0,0,1,4.42-6.08h92a9.74,9.74,0,0,1,9.24,6.62l18.73,55.94A4.63,4.63,0,0,1,802.47,620.86Z"/><path class="k" d="M700.7,612.47h131a5.54,5.54,0,0,1,5.54,5.54v0a2.81,2.81,0,0,1-2.81,2.81H700.7a0,0,0,0,1,0,0v-8.39A0,0,0,0,1,700.7,612.47Z"/><path class="h" d="M796.46,620.86H700.75a4.66,4.66,0,0,1-4.42-3.16l-19.89-59.4a4.63,4.63,0,0,1,4.42-6.08h92a9.73,9.73,0,0,1,9.24,6.62l18.73,55.94A4.62,4.62,0,0,1,796.46,620.86Z"/><path class="l" d="M914.46,558.31a3.48,3.48,0,0,1-1.82-.48c-2.77-1.61-2.69-6.8.17-11.81,1.87-3.27,4.55-5.71,7-6.37a4,4,0,0,1,3.08.3c2.77,1.62,2.7,6.81-.17,11.82-1.87,3.27-4.55,5.71-7,6.36A4.79,4.79,0,0,1,914.46,558.31Zm6.6-17.36a3.64,3.64,0,0,0-.89.12c-2,.55-4.42,2.78-6.08,5.68-2.38,4.16-2.71,8.65-.71,9.81a2.48,2.48,0,0,0,2,.15c2-.54,4.42-2.77,6.08-5.67h0c2.38-4.16,2.71-8.65.72-9.82A2.16,2.16,0,0,0,921.06,541Z"/><path class="i" d="M829,397.85c-7.43-.22-13.06-1-17.34-6l-13.23-15.56-3.85-4.53L772,345.11l11.89,31.15L791,395l2.26,5.92c1.53,4-.49,5.89-1.92,10.59-.58,1.9-4.48,13.62,5.69,13.69,12.66.09,28.68-14.63,32.2-27.34A1.42,1.42,0,0,1,829,397.85Z"/><path class="k" d="M802.12,366.28s24.93-24,10.55-44.19-18,32.46-18,32.46l4,12.18Z"/><path class="k" d="M798.32,375.74c0,.18.09.36.12.54,2.32,10.5-7.38,18.71-7.38,18.71l-.08,0-7.14-18.69c3-2.28,7.5-5,10.75-4.51C796.29,372,797.66,373.17,798.32,375.74Z"/><path class="i" d="M745.54,362.72C739.91,344,747.82,325,763.2,320.29s32.41,6.66,38,25.38-2.29,37.72-17.67,42.43S751.16,381.45,745.54,362.72Z"/><path class="k" d="M796,343s-7.93,5.77-14.59.89-11.36-9.51-26.26-2-31.21,4.14-34.23-4.31,4.09-14.91,13.45-14.49-2-4.71,4.53-13.59,23,.27,31.21-4.13,37.35-8.23,42.6,16.76Z"/><path class="i" d="M802.19,348c-1.91,3-5.58,3.95-8.2,2.22s-3.18-5.52-1.27-8.47,5.59-4,8.2-2.23S804.11,345,802.19,348Z"/><path class="e" d="M737.34,334.62a6.49,6.49,0,0,1-1.6-.19c-3.36-.85-4.3-2.61-4-4,.27-1.56,2.17-3.06,5.15-2.75,4.44.45,6.87-1,6.89-1.06l.59.92c-.11.07-2.75,1.72-7.59,1.22-2.21-.22-3.78.79-4,1.86s1,2.16,3.25,2.72c5.74,1.45,15.65-7.46,15.74-7.55l.74.8C752.1,327,743.6,334.62,737.34,334.62Z"/><path class="e" d="M763.08,313.7c-6.05,0-11.48-2.62-12-3.17l.83-.71-.42.36.39-.39c.55.47,9.42,4.76,17,1.79a67.38,67.38,0,0,0,6.91-3.31c4.41-2.33,8.21-4.34,12.56-3.5l-.2,1.07c-4-.77-7.63,1.16-11.85,3.4a65.83,65.83,0,0,1-7,3.35A17,17,0,0,1,763.08,313.7Z"/><path class="e" d="M805.11,320.8c-1.68,0-4.58-2.62-5.31-4.07-.57-1.17,0-1.7.29-1.87,2.18-1.38,5.34,2.92,6,3.79l.08.17c.35,1.33-.21,1.76-.58,1.9A1.23,1.23,0,0,1,805.11,320.8ZM801,315.68a.66.66,0,0,0-.37.1c0,.09,0,.67,1.1,1.76,1.48,1.53,3.06,2.28,3.39,2.17a2,2,0,0,0-.07-.52C804,317.63,802.11,315.68,801,315.68Z"/><path class="m" d="M767.8,355.12a.59.59,0,0,1-.44-.3.6.6,0,0,1,.23-.81,6.36,6.36,0,0,1,7.79.73.6.6,0,0,1,.08.84.64.64,0,0,1-.83.08,10,10,0,0,0-6.47-.61A.51.51,0,0,1,767.8,355.12Z"/><path class="m" d="M773.25,361c.22,1.4-.42,2.67-1.43,2.83s-2-.84-2.23-2.24.42-2.68,1.43-2.84S773,359.61,773.25,361Z"/><path class="m" d="M747.19,362.59a.43.43,0,0,1-.41-.13.74.74,0,0,1-.12-.83,4.12,4.12,0,0,1,5.76-1.88.71.71,0,0,1,.35.76.43.43,0,0,1-.55.35,6.15,6.15,0,0,0-4.79,1.55A.36.36,0,0,1,747.19,362.59Z"/><path class="m" d="M754.59,365.92c.73,1.21.62,2.63-.25,3.17s-2.17,0-2.91-1.22-.62-2.64.25-3.17S753.85,364.7,754.59,365.92Z"/><path class="n" d="M771.46,380.84a16.05,16.05,0,0,1-3.57-.37.41.41,0,1,1,.21-.8c.4.1,10,2.44,14.72-5.9a.42.42,0,0,1,.57-.16.41.41,0,0,1,.15.56C780.36,379.79,775,380.84,771.46,380.84Z"/><path class="n" d="M784.38,375.63a.42.42,0,0,1-.39-.28,4.67,4.67,0,0,0-2.34-2.37l-.12-.07a.41.41,0,0,1,.46-.69l.07,0a5.61,5.61,0,0,1,2.72,2.83.42.42,0,0,1-.27.52Z"/><rect class="k" x="724.47" y="473.04" width="21.37" height="1.7" transform="translate(55.62 1024.58) rotate(-71.83)"/><path class="e" d="M751.27,386a8.28,8.28,0,0,1-1.2-.09c-4.37-.58-8.92-4.28-12.16-9.89-5.26-9.11-5.5-20.53-.52-25.46a7.9,7.9,0,0,1,6.8-2.26c4.37.59,8.92,4.29,12.16,9.9h0c5.26,9.11,5.5,20.53.52,25.46A7.77,7.77,0,0,1,751.27,386ZM743,349.44a6.6,6.6,0,0,0-4.75,2c-4.61,4.56-4.28,15.32.72,24,3,5.28,7.26,8.75,11.26,9.28a6.67,6.67,0,0,0,5.77-1.9c4.6-4.57,4.28-15.32-.73-24-3-5.28-7.26-8.75-11.25-9.29A9,9,0,0,0,743,349.44Z"/><g class="o"><path class="e" d="M786,344.8c4.27,9.06,3.09,20.09-2.63,24.62s-13.8.88-18.06-8.19-3.09-20.09,2.63-24.63S781.72,335.73,786,344.8Z"/></g><g class="o"><path class="e" d="M756.77,358.91c4.28,9.11,3.7,20.16-1.29,24.68s-12.5.81-16.78-8.3S735,355.14,740,350.62,752.5,349.81,756.77,358.91Z"/></g><path class="e" d="M777,371.86a10.7,10.7,0,0,1-2.48-.3c-4.58-1.08-8.75-4.94-11.43-10.58-4.61-9.67-3.21-21.55,3.1-26.48a10,10,0,0,1,8.69-1.9c4.58,1.08,8.75,4.94,11.44,10.58h0c4.6,9.67,3.2,21.55-3.11,26.48A9.91,9.91,0,0,1,777,371.86Zm-4.59-38.32a8.73,8.73,0,0,0-5.46,1.93c-5.89,4.59-7.12,15.8-2.75,25,2.48,5.23,6.45,8.93,10.6,9.91a8.74,8.74,0,0,0,7.65-1.67c5.89-4.59,7.12-15.8,2.75-25-2.48-5.23-6.45-8.93-10.6-9.91A9.22,9.22,0,0,0,772.36,333.54Z"/><path class="e" d="M756,362.79a1.16,1.16,0,0,1-.7-.24,1.15,1.15,0,0,1-.21-1.6c.13-.17,3.1-4,9.44-4.12a1.15,1.15,0,1,1,.06,2.29c-5.19.13-7.58,3.1-7.68,3.23A1.15,1.15,0,0,1,756,362.79Z"/><polygon class="f" points="812.67 442.6 851.64 437.27 855.31 453.92 813.76 457.65 812.67 442.6"/><path class="i" d="M500.33,486.23c4.44-4.37,10.1-20.63,4.54-28.91-3.36-5-18.59-4.29-18.59-4.29-2.72-1.91-48,41-99.94,24.58-18.49-5.86-44.06-38.23-45.9-43-.24-.64-40.94,14.07-40.94,14.07,3.34,8.7,7.2,36.24,27.1,54.56C367.77,541.1,462.27,537.41,500.33,486.23Z"/><path class="k" d="M258.66,1008.73s.35,14,9.86,18,37.05,7.54,26.76,16.57c-5.91,5.18-33.74,1.84-41.6,1.84s-15.24,3.42-21.08-1.84c-6.42-5.79,0-34.59,0-34.59s6.78,3.54,12.88,3.38C254.27,1011.88,258.66,1008.73,258.66,1008.73Z"/><path class="c" d="M340.68,584.72s1.9,63.41-18.34,185C307.73,857.58,290.49,946.07,282,988.49a33.11,33.11,0,0,1-30.92,26.88l-8.13.32c-16.35.66-29.63-13.39-28.43-30.09l20.52-287,5.06-94.46Z"/><path class="k" d="M168.62,1008.73s.35,14,9.86,18,37.05,7.54,26.76,16.57c-5.91,5.18-33.75,1.84-41.6,1.84s-15.24,3.42-21.08-1.84c-6.43-5.79,0-34.59,0-34.59s6.78,3.54,12.88,3.38C164.23,1011.88,168.62,1008.73,168.62,1008.73Z"/><path class="c" d="M250.64,584.72s1.9,63.41-18.34,185C217.69,857.58,200.45,946.07,192,988.49a33.09,33.09,0,0,1-30.91,26.88l-8.13.32c-16.35.66-29.63-13.39-28.43-30.09l20.52-287,5.06-94.46Z"/><path class="k" d="M140.15,654.21c.2,7.65,46.46,10.69,103.67,8.9s102.93-9.69,102.74-17.34-46.23-12.15-103.45-10.36S140,646.56,140.15,654.21Z"/><path class="p" d="M154.16,437.63s10.11-40.1,84.76-40.51c107.65-.58,97.68,98.33,107.64,248.65,0,0-106-15-206.46,6.56C140.1,652.33,130.78,498.9,154.16,437.63Z"/><path class="p" d="M126.6,431.88l48.76,27s106.75,9.7,135.09,5,36.11-25.48,36.11-25.48-30.18-31.23-81.48-39.57c-4.82-.79-9.82-1.37-15-1.71a147.47,147.47,0,0,0-25.93.52C159.12,405,126.6,431.88,126.6,431.88Z"/><path class="i" d="M228.66,388l5.63-18.19,1.64-5.3,9.65-31.12,1.26,31,.76,18.59.24,5.88c.17,4,2.6,4.83,5.56,8.3,1.2,1.41,8.88,9.94.17,13.79-10.86,4.79-31.16-2.47-38.88-12C214.75,398.86,226.84,393.82,228.66,388Z"/><path class="c" d="M337.55,652s-62-18.24-190.38,6.8l-1,18.47,188.21,6.65Z"/><path class="k" d="M125.59,433c-4.14,5.85,2,17.4,13.6,25.81s24.43,10.47,28.57,4.62-2-17.4-13.6-25.8S129.72,427.15,125.59,433Z"/><path class="i" d="M82.63,682.23h0a4.47,4.47,0,0,0-3.57,5.18L86,724.76a4.46,4.46,0,0,0,5.18,3.57h0a4.46,4.46,0,0,0,3.56-5.18L87.81,685.8A4.46,4.46,0,0,0,82.63,682.23Z"/><path class="i" d="M93.83,680.17h0a4.46,4.46,0,0,0-3.57,5.18L98,727.12a4.45,4.45,0,0,0,5.18,3.56h0a4.46,4.46,0,0,0,3.57-5.18L99,683.74A4.46,4.46,0,0,0,93.83,680.17Z"/><path class="i" d="M92.83,657.88l-1,1.19a5.4,5.4,0,0,0,.53,7.59l21.73,18.92a5.4,5.4,0,0,0,7.59-.52l1-1.2a5.39,5.39,0,0,0-.53-7.58l-21.73-18.93A5.4,5.4,0,0,0,92.83,657.88Z"/><path class="i" d="M105,678.11h0a4.46,4.46,0,0,0-3.57,5.18l6.17,33.47a4.46,4.46,0,0,0,5.18,3.57h0a4.46,4.46,0,0,0,3.57-5.18l-6.17-33.48A4.46,4.46,0,0,0,105,678.11Z"/><path class="i" d="M71.11,662.36s-8.69,23.9.86,39.23c3.31,5.3,36.11-1.68,38-8.43s-4.49-28.95-4.49-28.95Z"/><path class="i" d="M71.5,684.25h0a4.45,4.45,0,0,0-3.56,5.17l6.16,33.41a4.45,4.45,0,0,0,5.17,3.56h0a4.45,4.45,0,0,0,3.56-5.17l-6.16-33.41A4.45,4.45,0,0,0,71.5,684.25Z"/><path class="i" d="M112.2,667.41c4.49-49.41,14.78-120.06,38.35-176,5.46-13,7.74-17.83,12-24.91,3.43-5.7-2.7-18.22-12.38-24.18-9.09-5.61-23.24-4.69-25.47-1.92-3.81,4.72-7.87,13.76-14.19,28.1-22,49.85-35.11,114.25-40.44,197.28Z"/><path class="k" d="M270.39,321.65a40.81,40.81,0,0,1,0,17c-2,9.45-11.57-13.78-11.57-13.78Z"/><path class="i" d="M271.53,341.35c-2.39-18.26-16.62-31.46-31.77-29.47s-25.48,18.41-23.08,36.68S233.3,380,248.45,378,273.93,359.62,271.53,341.35Z"/><path class="k" d="M216,339l13.4-1.39a9.79,9.79,0,0,0,7.23-4.38c2.74-4.3,6-6.5,18.53-6,15.82.6,26.26-8.83,28-17.11,1.75-8.44-6.35-14.17-14.29-10.14s-4.54-5.85-12.18-6.9c-14.27-2-16.95,9-28.63,8.69-15.33-.47-42.78,11.17-29.76,38.15Z"/><path class="m" d="M245.56,343.56a.57.57,0,0,0-.25-1,6.09,6.09,0,0,0-6.47,3.68.58.58,0,0,0,.26.76.63.63,0,0,0,.75-.26,9.58,9.58,0,0,1,5.37-3.06A.57.57,0,0,0,245.56,343.56Z"/><path class="m" d="M243.13,350.75c.35,1.29,1.4,2.13,2.33,1.87s1.41-1.5,1.06-2.79-1.4-2.13-2.33-1.88S242.78,349.46,243.13,350.75Z"/><path class="m" d="M266.31,341.89a.4.4,0,0,0,.3-.28.68.68,0,0,0-.22-.76,4,4,0,0,0-5.72.65.67.67,0,0,0,0,.79.41.41,0,0,0,.62.08,5.84,5.84,0,0,1,4.75-.54A.36.36,0,0,0,266.31,341.89Z"/><path class="m" d="M261.19,347.64c-.16,1.33.48,2.5,1.45,2.62s1.88-.86,2-2.18-.48-2.51-1.44-2.63S261.36,346.31,261.19,347.64Z"/><path class="k" d="M198.25,339.89s9.24,20,22.36,21.42c0,0-10.61-15.21,11.74-24.48C232.35,336.83,211.83,333.61,198.25,339.89Z"/><path class="i" d="M216.73,350.9c2.81,1.79,6.38,1.2,8-1.3s.61-6-2.19-7.77-6.37-1.2-8,1.31S213.93,349.12,216.73,350.9Z"/><path class="k" d="M232.35,336.83s-1.79,16.75,1.62,19.92,25.92,4.53,36.42.47h0a21.88,21.88,0,0,1-18,22,31.81,31.81,0,0,1-10.75,0h0c-7.35-1.28-14.5-4.32-17.53-11.15-.92-2.07,1.76-14.84,1.76-14.84s1-7.49-3.35-11.39C222.51,341.83,227.54,337.31,232.35,336.83Z"/><path class="e" d="M264.85,363.26a56.91,56.91,0,0,1-18.05,1.42s1.38,8.72,10.92,7C263.26,370.65,264.85,363.26,264.85,363.26Z"/><path class="k" d="M267.12,298.63a4.21,4.21,0,0,1-4.53-3.62l.75-.07c0,.13.35,3.06,4,2.93l0,.76Z"/><path class="e" d="M259.63,322.77l-.11-.36c.17-.05,17-5,17.7-13.7.19-2.45-.22-4.08-1.26-5-1.66-1.43-4.7-.72-7.38-.1l-1.2.27-.08-.36,1.19-.28c2.77-.64,5.91-1.37,7.72.19,1.14,1,1.59,2.71,1.38,5.29-.3,3.7-3.51,7.3-9.28,10.42A50.16,50.16,0,0,1,259.63,322.77Z"/><path class="e" d="M226.48,305.2a37.75,37.75,0,0,1-5-.35l0-.37c16.43,2.22,24.34-7,24.42-7.11l.29.25C246.12,297.7,239.7,305.2,226.48,305.2Z"/><path class="l" d="M100.54,556.14a4.62,4.62,0,0,1-.82-.07c-3.8-.63-6.18-5.49-5.3-10.85a12.2,12.2,0,0,1,3-6.42,5.74,5.74,0,0,1,10,1.65,12.22,12.22,0,0,1,.81,7C107.41,552.47,104.06,556.14,100.54,556.14Zm1.55-17.71a4.67,4.67,0,0,0-3.31,1.65,10.33,10.33,0,0,0-2.53,5.44c-.71,4.28,1,8.27,3.77,8.73s5.68-2.78,6.38-7a10.38,10.38,0,0,0-.65-6,4.41,4.41,0,0,0-3.13-2.75A3.08,3.08,0,0,0,102.09,538.43Z"/><path class="k" d="M327.36,460.23c-3.09-11.15-13.48-25.16-13.58-25.3l1-.74c.11.14,10.64,14.35,13.78,25.72Z"/><path class="k" d="M228.89,794.54l-1.22-.2c.09-.52,8.42-52.22,14.15-70.71,5.79-18.67,30.51-34.25,30.76-34.4l.65,1c-.24.15-24.58,15.49-30.23,33.72C237.29,742.4,229,794,228.89,794.54Z"/><path class="k" d="M487.32,479.61h0a3.27,3.27,0,0,1-2.95-3.56l2.23-24.15a14.4,14.4,0,0,1,15.66-13l64.51,6a13.33,13.33,0,0,0,14.48-12l1.35-14.62a12.74,12.74,0,0,0-11.51-13.85l-20.36-1.88a3.25,3.25,0,0,1-3-3.55h0a3.25,3.25,0,0,1,3.55-2.95l25.56,2.36a14,14,0,0,1,12.69,15.27l-2.44,26.49A13.16,13.16,0,0,1,572.84,452l-66.91-6.18a12.17,12.17,0,0,0-13.22,11l-1.83,19.88A3.28,3.28,0,0,1,487.32,479.61Z"/><path class="j" d="M552.93,428.61c-29.9-3.43-119.25-16.39-119.25-16.39a18,18,0,0,1-16.23-19.54l.26-2.86a18.36,18.36,0,0,1,20-16.6l118.77,10.95a16.76,16.76,0,0,1,15.15,18.23L571,409C570.2,417.71,561.59,429.61,552.93,428.61Z"/><path class="c" d="M486.68,507.65l-4.13-.38a7.92,7.92,0,0,1-7.05-9.36l5.69-30.15a7.92,7.92,0,0,1,8.51-6.41h0a7.92,7.92,0,0,1,7.19,8.29l-1.56,30.53A7.92,7.92,0,0,1,486.68,507.65Z"/><path class="q" d="M514.67,485.11s2.83,14.7-10.61,17.2c-17.13,3.17-41.51-9.28-30.68-11.45,9.59-1.92,23.87-1.37,23.87-1.37S461,487.6,463.93,480.2s34.15-5.36,34.15-5.36-35.16-5.16-30.09-11.25,33.39-4.41,33.39-4.41S466.75,456,472.8,449.06s23.63-1.65,31.58-1.11c7.52.5,9.63,5.52,8.62,12.73,0,0,3.18,7.78,1.33,12.32-.71,1.75.86,3.64.93,5A47.39,47.39,0,0,1,514.67,485.11Z"/><polygon class="a" points="1035.81 187.85 1036.83 953.08 1068.2 953.08 1068.2 192.56 1035.81 187.85"/><polygon class="a" points="1497.97 187.85 1035.81 187.85 1052 202.95 1509.34 212.69 1497.97 187.85"/><polygon class="a" points="1497.97 384.83 1035.81 384.83 1052 399.93 1509.34 409.67 1497.97 384.83"/><polygon class="a" points="1497.97 581.81 1035.81 581.81 1052 596.91 1509.34 606.65 1497.97 581.81"/><polygon class="a" points="1497.97 778.79 1035.81 778.79 1052 793.89 1509.34 803.63 1497.97 778.79"/><polygon class="a" points="1497.97 187.85 1498.86 1007.57 1526.38 1007.57 1526.38 187.85 1497.97 187.85"/><path class="c" d="M1300.26,1005.13h-56.6a17.83,17.83,0,0,1-17.79-16.64l-5.35-80.34h104.55l-7.48,81.17A17.41,17.41,0,0,1,1300.26,1005.13Z"/><path class="k" d="M1271.9,945.45c-46,0-48.22-39.3-48.24-39.7l9-.42c.07,1.28,2,31.07,39.2,31.07h.65c38.16-.34,40.25-29.84,40.32-31.09l9,.5c-.77,13.57-12,39.31-49.29,39.65Z"/><path class="k" d="M1325.9,908.15H1219.69a2.6,2.6,0,0,1-2.61-2.6h0a2.6,2.6,0,0,1,2.61-2.6H1325.9a2.6,2.6,0,0,1,2.61,2.6h0A2.6,2.6,0,0,1,1325.9,908.15Z"/><path class="j" d="M1451.05,1005.13h-69.59a21.93,21.93,0,0,1-21.88-20.47L1353,885.88h128.56l-9.2,99.81A21.42,21.42,0,0,1,1451.05,1005.13Z"/><path class="k" d="M1416.18,931.75c-56.51,0-59.29-48.34-59.31-48.83l11.13-.51c.08,1.57,2.51,38.2,48.2,38.2h.8c46.92-.43,49.5-36.7,49.58-38.24l11.12.62c-.94,16.68-14.81,48.33-60.6,48.76Z"/><path class="k" d="M1482.59,885.88H1352a3.2,3.2,0,0,1-3.2-3.2h0a3.2,3.2,0,0,1,3.2-3.2h130.61a3.21,3.21,0,0,1,3.21,3.2h0A3.21,3.21,0,0,1,1482.59,885.88Z"/><rect class="p" x="1434.26" y="641.33" width="19.77" height="23.79" rx="4.07" transform="translate(-139.58 589.45) rotate(-22.03)"/><path class="p" d="M1383.94,702.43l51.81-26.69a6.08,6.08,0,0,0,2.74-7.94l-8-17.47a6.06,6.06,0,0,0-7-3.35l-56,13.9a6.07,6.07,0,0,0-4.17,8.18l12.24,30.25A6.07,6.07,0,0,0,1383.94,702.43Z"/><path class="c" d="M1475.61,760h0a7.22,7.22,0,0,1-9.49-4.23l-40.06-110.19a9.26,9.26,0,0,1,3.53-10.84h0a2,2,0,0,1,3,.9l46.77,115.58A6.74,6.74,0,0,1,1475.61,760Z"/><path class="k" d="M1469.41,726.74,1457,730.59l9.3,26.26a6.46,6.46,0,0,0,8.41,3.56l1.77-.72a5.86,5.86,0,0,0,3.23-7.62Z"/><path class="p" d="M1335.18,654.15l-10.79,4.37a4.07,4.07,0,0,1-5.3-2.25l-5.87-14.5a4.08,4.08,0,0,1,2.25-5.31l10.78-4.36a4.07,4.07,0,0,1,5.3,2.25l5.87,14.5A4.06,4.06,0,0,1,1335.18,654.15Z"/><path class="p" d="M1265.12,694.52l51.81-26.69a6.07,6.07,0,0,0,2.73-7.94l-8-17.47a6.08,6.08,0,0,0-7-3.36l-56,13.91a6.08,6.08,0,0,0-4.16,8.18l12.24,30.25A6.08,6.08,0,0,0,1265.12,694.52Z"/><path class="c" d="M1356.78,752.11h0a7.21,7.21,0,0,1-9.49-4.22l-40-110.19a9.28,9.28,0,0,1,3.52-10.85h0a2,2,0,0,1,3,.91l46.78,115.58A6.73,6.73,0,0,1,1356.78,752.11Z"/><path class="k" d="M1350.58,718.83l-12.45,3.84,9.3,26.27a6.46,6.46,0,0,0,8.4,3.56l1.77-.72a5.84,5.84,0,0,0,3.23-7.62Z"/><path class="k" d="M1198.48,535.32h0a3.27,3.27,0,0,1-4.39-1.45L1183.2,512.2a14.4,14.4,0,0,1,6.4-19.34l57.89-29.09a13.31,13.31,0,0,0,5.92-17.87l-6.6-13.12a12.72,12.72,0,0,0-17.09-5.66l-18.27,9.18a3.27,3.27,0,0,1-4.39-1.45h0a3.27,3.27,0,0,1,1.45-4.39l22.94-11.52a14,14,0,0,1,18.85,6.24l12,23.77a13.15,13.15,0,0,1-5.85,17.65l-60,30.17a12.16,12.16,0,0,0-5.41,16.32l9,17.84A3.27,3.27,0,0,1,1198.48,535.32Z"/><path class="j" d="M1227.16,457.33c-27.19,12.91-109.86,49.19-109.86,49.19a18,18,0,0,1-24.12-8l-1.29-2.56a18.39,18.39,0,0,1,8.17-24.67l106.58-53.56a16.77,16.77,0,0,1,22.5,7.45l3,5.95C1236,438.94,1235,453.59,1227.16,457.33Z"/><path class="c" d="M1212.78,559.45l-3.71,1.87a7.91,7.91,0,0,1-10.94-4.21L1187,528.51a7.92,7.92,0,0,1,3.82-10h0a7.93,7.93,0,0,1,10.49,3.24l14.83,26.73A7.92,7.92,0,0,1,1212.78,559.45Z"/><path class="k" d="M1334.2,538.4h0a2.75,2.75,0,0,1-3.69-1.21l-9.14-18.2a12.09,12.09,0,0,1,5.37-16.23l48.61-24.43a11.18,11.18,0,0,0,5-15l-5.54-11a10.69,10.69,0,0,0-14.35-4.75l-15.34,7.71a2.75,2.75,0,0,1-3.69-1.22h0a2.74,2.74,0,0,1,1.22-3.68l19.26-9.68a11.79,11.79,0,0,1,15.83,5.24l10,20a11,11,0,0,1-4.91,14.82L1332.43,506a10.2,10.2,0,0,0-4.54,13.7l7.53,15A2.74,2.74,0,0,1,1334.2,538.4Z"/><path class="j" d="M1358.28,472.93c-22.83,10.83-92.24,41.3-92.24,41.3a15.07,15.07,0,0,1-20.24-6.71l-1.09-2.15a15.44,15.44,0,0,1,6.86-20.71l89.48-45a14.07,14.07,0,0,1,18.89,6.25l2.51,5C1365.74,457.49,1364.89,469.79,1358.28,472.93Z"/><path class="c" d="M1346.2,558.67l-3.11,1.56a6.66,6.66,0,0,1-9.19-3.53l-9.33-24a6.64,6.64,0,0,1,3.21-8.35h0a6.65,6.65,0,0,1,8.8,2.71L1349,549.5A6.65,6.65,0,0,1,1346.2,558.67Z"/><path class="k" d="M1440,548h0a2.18,2.18,0,0,1-2.93-1l-7.28-14.48a9.63,9.63,0,0,1,4.28-12.92l38.68-19.43a8.89,8.89,0,0,0,4-11.94l-4.4-8.77a8.5,8.5,0,0,0-11.42-3.78l-12.21,6.13a2.18,2.18,0,0,1-2.93-1h0a2.18,2.18,0,0,1,1-2.93l15.32-7.7a9.38,9.38,0,0,1,12.6,4.17l8,15.89a8.78,8.78,0,0,1-3.9,11.79l-40.12,20.16a8.12,8.12,0,0,0-3.61,10.9l6,11.92A2.18,2.18,0,0,1,1440,548Z"/><path class="j" d="M1459.16,495.85c-18.17,8.63-73.41,32.87-73.41,32.87a12,12,0,0,1-16.11-5.33l-.86-1.72a12.27,12.27,0,0,1,5.46-16.47l71.21-35.79a11.2,11.2,0,0,1,15,5l2,4C1465.09,483.57,1464.42,493.36,1459.16,495.85Z"/><path class="c" d="M1449.55,564.09l-2.48,1.24a5.29,5.29,0,0,1-7.31-2.81l-7.43-19.1a5.29,5.29,0,0,1,2.56-6.65h0a5.29,5.29,0,0,1,7,2.16l9.91,17.86A5.29,5.29,0,0,1,1449.55,564.09Z"/><path class="j" d="M1111.67,258l2.46,40.11,70.12-11-10.49-38.74a4,4,0,0,0-4.42-2.86l-54.5,8.55A3.75,3.75,0,0,0,1111.67,258Z"/><rect class="k" x="1114.61" y="292.5" width="70.97" height="11.73" transform="translate(-32.35 181.93) rotate(-8.92)"/><path class="c" d="M1116,309.66l.22,1.39a11.29,11.29,0,0,0,12.91,9.41l6.61-1a6,6,0,0,1,7,5.87c.21,12,1.29,35.2,6.63,35.54,7.2.45,13.93-4.56,11.42-18s-7.18-25.79-4.22-27.05c1.69-.72,11.78-2.1,20.1-3.16a11.17,11.17,0,0,0,9.63-12.82l-.17-1.13Z"/><path class="j" d="M1211.33,268.47l2.12,34.53,60.37-9.47-9-33.36a3.39,3.39,0,0,0-3.81-2.46l-46.93,7.36A3.23,3.23,0,0,0,1211.33,268.47Z"/><rect class="k" x="1213.86" y="298.2" width="61.12" height="10.1" transform="translate(-31.96 196.49) rotate(-8.91)"/><path class="c" d="M1215,313l.19,1.2a9.72,9.72,0,0,0,11.12,8.1l5.69-.89a5.21,5.21,0,0,1,6,5.05c.18,10.3,1.11,30.31,5.71,30.6,6.2.4,12-3.92,9.84-15.51s-6.19-22.21-3.65-23.29c1.46-.62,10.15-1.82,17.31-2.72a9.63,9.63,0,0,0,8.3-11l-.15-1Z"/><path class="j" d="M1310.14,280.94,1312,310.8l52.21-8.19-7.82-28.84a2.92,2.92,0,0,0-3.28-2.13L1312.5,278A2.82,2.82,0,0,0,1310.14,280.94Z"/><rect class="k" x="1312.34" y="306.65" width="52.85" height="8.74" transform="translate(-32.03 211.22) rotate(-8.91)"/><path class="c" d="M1313.33,319.43l.16,1a8.43,8.43,0,0,0,9.62,7l4.92-.78a4.51,4.51,0,0,1,5.21,4.37c.15,8.91,1,26.21,4.93,26.46,5.36.34,10.38-3.39,8.51-13.42s-5.35-19.2-3.15-20.13c1.26-.54,8.77-1.57,15-2.36a8.32,8.32,0,0,0,7.17-9.54l-.13-.84Z"/><path class="j" d="M1412.28,302.93l1.33,21.62,37.81-5.93-5.66-20.89a2.12,2.12,0,0,0-2.38-1.54L1414,300.8A2,2,0,0,0,1412.28,302.93Z"/><rect class="k" x="1413.87" y="321.55" width="38.27" height="6.33" transform="translate(-33.02 226.09) rotate(-8.92)"/><path class="c" d="M1414.59,330.8l.12.76a6.09,6.09,0,0,0,7,5.07l3.57-.56a3.25,3.25,0,0,1,3.76,3.16c.11,6.45.7,19,3.58,19.17,3.88.24,7.51-2.46,6.16-9.72s-3.87-13.91-2.28-14.59c.91-.38,6.35-1.13,10.84-1.7a6,6,0,0,0,5.19-6.91l-.09-.61Z"/><path class="k" d="M478.83,1024.51h0c-2.14,0-3.68-3.47-3.14-6.63l8.84-52.81h12l-12.84,55.76C483.16,1024.51,480.19,1024.53,478.83,1024.51Z"/><path class="k" d="M924.49,1032h0c-2.15,0-3.69-3.47-3.15-6.63l8.85-52.81h12l-12.84,55.76C928.82,1032,925.85,1032,924.49,1032Z"/><path class="k" d="M1066.9,1013.74h0c2.15,0,3.69-3.47,3.15-6.64l-8.85-52.8h-12l12.84,55.76C1062.57,1013.74,1065.54,1013.76,1066.9,1013.74Z"/><path class="b" d="M1057.63,974.71l-96.94,15.95-385.3-4.54c-13.29-.22-24.12-11.36-24.73-25.43l-13.49-312c-.66-15.18,10.79-27.87,25.14-27.87H1075c14.21,0,25.61,12.46,25.14,27.52l-16,292.89C1083.72,955.82,1071.37,974.94,1057.63,974.71Z"/><path class="a" d="M954.6,991.17l-491.94-5c-13.29-.22-24.12-11.36-24.73-25.43l-13.49-312c-.65-15.18,10.79-27.87,25.14-27.87H962.31c14.21,0,25.61,12.46,25.15,27.52l-9.83,320.24C977.18,983.18,968.33,991.4,954.6,991.17Z"/></svg>